<?xml version="1.0" encoding="UTF-8" standalone="no"?>
<!-- Created with Inkscape (http://www.inkscape.org/) -->

<svg
   xmlns:dc="http://purl.org/dc/elements/1.1/"
   xmlns:cc="http://creativecommons.org/ns#"
   xmlns:rdf="http://www.w3.org/1999/02/22-rdf-syntax-ns#"
   xmlns:svg="http://www.w3.org/2000/svg"
   xmlns="http://www.w3.org/2000/svg"
   xmlns:sodipodi="http://sodipodi.sourceforge.net/DTD/sodipodi-0.dtd"
   xmlns:inkscape="http://www.inkscape.org/namespaces/inkscape"
   width="70mm"
   height="70mm"
   viewBox="0 0 70 70"
   version="1.1"
   id="svg8"
   sodipodi:docname="PiBox Icon.svg"
   inkscape:version="0.92.4 5da689c313, 2019-01-14">
  <defs
     id="defs2" />
  <sodipodi:namedview
     id="base"
     pagecolor="#ffffff"
     bordercolor="#666666"
     borderopacity="1.0"
     inkscape:pageopacity="0.0"
     inkscape:pageshadow="2"
     inkscape:zoom="1.4"
     inkscape:cx="-76.516909"
     inkscape:cy="54.17795"
     inkscape:document-units="mm"
     inkscape:current-layer="layer1"
     showgrid="false"
     showborder="false"
     inkscape:snap-bbox="true"
     inkscape:snap-bbox-midpoints="true"
     inkscape:snap-object-midpoints="true"
     showguides="true"
     inkscape:guide-bbox="true"
     inkscape:snap-others="true"
     inkscape:snap-global="true"
     inkscape:snap-bbox-edge-midpoints="true"
     inkscape:bbox-nodes="true"
     inkscape:bbox-paths="true"
     inkscape:snap-center="true"
     inkscape:snap-intersection-paths="true"
     inkscape:object-paths="true"
     inkscape:snap-smooth-nodes="true"
     inkscape:window-width="1920"
     inkscape:window-height="1023"
     inkscape:window-x="0"
     inkscape:window-y="0"
     inkscape:window-maximized="1"
     fit-margin-top="0"
     fit-margin-left="0"
     fit-margin-right="0"
     fit-margin-bottom="0">
    <sodipodi:guide
       position="35.000001,35.000001"
       orientation="1,0"
       id="guide871"
       inkscape:locked="false"
       inkscape:label=""
       inkscape:color="rgb(0,0,255)" />
    <sodipodi:guide
       position="40.000001,35.000001"
       orientation="1,0"
       id="guide873"
       inkscape:locked="false"
       inkscape:label=""
       inkscape:color="rgb(0,0,255)" />
    <sodipodi:guide
       position="35.000001,35.000001"
       orientation="0,1"
       id="guide887"
       inkscape:locked="false"
       inkscape:label=""
       inkscape:color="rgb(0,0,255)" />
    <sodipodi:guide
       position="25,35.000001"
       orientation="1,0"
       id="guide891"
       inkscape:locked="false"
       inkscape:label=""
       inkscape:color="rgb(0,0,255)" />
    <sodipodi:guide
       position="35.000001,55.000001"
       orientation="0,1"
       id="guide919"
       inkscape:locked="false"
       inkscape:label=""
       inkscape:color="rgb(0,0,255)" />
    <sodipodi:guide
       position="35.000001,15.000001"
       orientation="0,1"
       id="guide921"
       inkscape:locked="false"
       inkscape:label=""
       inkscape:color="rgb(0,0,255)" />
    <sodipodi:guide
       position="35.000001,45.000001"
       orientation="0,1"
       id="guide923"
       inkscape:locked="false"
       inkscape:label=""
       inkscape:color="rgb(0,0,255)" />
    <sodipodi:guide
       position="35.000001,25.000001"
       orientation="0,1"
       id="guide925"
       inkscape:locked="false"
       inkscape:label=""
       inkscape:color="rgb(0,0,255)" />
    <sodipodi:guide
       position="35.000001,70.000002"
       orientation="0,1"
       id="guide927"
       inkscape:locked="false" />
    <sodipodi:guide
       position="35.000001,-5.5798745e-07"
       orientation="0,1"
       id="guide929"
       inkscape:locked="false" />
    <sodipodi:guide
       position="1.0918353e-06,35.000001"
       orientation="1,0"
       id="guide931"
       inkscape:locked="false" />
    <sodipodi:guide
       position="70.000001,35.000001"
       orientation="1,0"
       id="guide933"
       inkscape:locked="false" />
    <sodipodi:guide
       position="15,35.000001"
       orientation="1,0"
       id="guide935"
       inkscape:locked="false"
       inkscape:label=""
       inkscape:color="rgb(0,0,255)" />
    <sodipodi:guide
       position="35.000001,53.500001"
       orientation="0,1"
       id="guide916"
       inkscape:locked="false"
       inkscape:label=""
       inkscape:color="rgb(0,0,255)" />
    <sodipodi:guide
       position="35.000001,16.500001"
       orientation="0,1"
       id="guide918"
       inkscape:locked="false"
       inkscape:label=""
       inkscape:color="rgb(0,0,255)" />
    <sodipodi:guide
       position="35.000001,43.500001"
       orientation="0,1"
       id="guide920"
       inkscape:locked="false"
       inkscape:label=""
       inkscape:color="rgb(0,0,255)" />
    <sodipodi:guide
       position="35.000001,26.500001"
       orientation="0,1"
       id="guide922"
       inkscape:locked="false"
       inkscape:label=""
       inkscape:color="rgb(0,0,255)" />
    <sodipodi:guide
       position="31.5,35.000001"
       orientation="1,0"
       id="guide993"
       inkscape:locked="false"
       inkscape:label=""
       inkscape:color="rgb(0,0,255)" />
  </sodipodi:namedview>
  <metadata
     id="metadata5">
    <rdf:RDF>
      <cc:Work
         rdf:about="">
        <dc:format>image/svg+xml</dc:format>
        <dc:type
           rdf:resource="http://purl.org/dc/dcmitype/StillImage" />
        <dc:title />
      </cc:Work>
    </rdf:RDF>
  </metadata>
  <g
     inkscape:label="Ebene 1"
     inkscape:groupmode="layer"
     id="layer1"
     transform="translate(35,-262)">
    <g
       id="g1001"
       inkscape:export-xdpi="185.78287"
       inkscape:export-ydpi="185.78287">
      <circle
         r="34.928974"
         cy="297"
         cx="3.5017729e-07"
         id="path839"
         style="opacity:1;fill:#000000;fill-opacity:1;stroke:#000000;stroke-width:0.1420524;stroke-miterlimit:4;stroke-dasharray:none" />
      <rect
         style="opacity:1;fill:#ffffff;fill-opacity:1;stroke:none;stroke-width:3.81442022;stroke-linecap:round;stroke-linejoin:round;stroke-miterlimit:4;stroke-dasharray:none;stroke-opacity:1"
         id="rect939"
         width="20"
         height="20"
         x="-23.5"
         y="287"
         ry="3" />
      <path
         style="opacity:1;fill:#ffffff;fill-opacity:1;stroke:none;stroke-width:3.25184989;stroke-linecap:round;stroke-linejoin:round;stroke-miterlimit:4;stroke-dasharray:none;stroke-opacity:1"
         d="m -13.5,287 10,-10 v 40 l -10,-10 z"
         id="rect945"
         inkscape:connector-curvature="0"
         sodipodi:nodetypes="ccccc" />
      <path
         inkscape:connector-curvature="0"
         id="path953"
         d="m -9.74842,304.49357 c -0.0264,-0.007 -0.15638,-0.0349 -0.28892,-0.0624 -0.81558,-0.16945 -1.49129,-0.71713 -1.89457,-1.5356 -0.33002,-0.66979 -0.48221,-1.49933 -0.61124,-3.33171 -0.0483,-0.68585 -0.035,-2.98022 0.0237,-4.08874 0.078,-1.47262 0.099,-1.7978 0.16845,-2.60553 0.0114,-0.13248 0.0158,-0.24945 0.01,-0.25991 -0.006,-0.0107 -0.55127,-0.0189 -1.21179,-0.0189 h -1.20095 l 0.0154,0.75436 c 0.0534,2.61951 0.0936,4.32115 0.12555,5.31864 0.062,1.93341 0.0655,2.16614 0.038,2.49769 -0.13682,1.64958 -0.72267,2.78553 -1.62142,3.14394 -0.20288,0.0809 -0.55773,0.099 -0.76072,0.0387 -0.46805,-0.13893 -0.92515,-0.5098 -1.16598,-0.946 -0.2626,-0.47566 -0.274,-1.10545 -0.0343,-1.89434 0.0466,-0.15341 0.0926,-0.29034 0.1021,-0.30428 0.01,-0.014 0.0423,-0.0937 0.0728,-0.17751 0.0305,-0.0837 0.20907,-0.49446 0.39683,-0.91285 0.36294,-0.80876 0.46298,-1.09894 0.57252,-1.66088 0.064,-0.32806 0.13606,-0.84038 0.18025,-1.28054 0.0834,-0.83112 0.12238,-2.69116 0.0738,-3.52463 -0.0338,-0.57947 -0.0811,-1.0208 -0.11311,-1.05465 -0.0121,-0.0128 -0.11069,-0.0349 -0.21919,-0.0494 -0.4156,-0.0551 -1.07887,0.0567 -1.82563,0.30768 -0.39149,0.13159 -0.43318,0.14803 -1.04269,0.41087 -0.50508,0.21783 -0.66579,0.27136 -0.81477,0.27136 -0.10042,0 -0.13412,-0.0117 -0.1791,-0.0623 -0.0452,-0.051 -0.053,-0.0812 -0.0424,-0.16476 0.038,-0.30003 0.54761,-1.12125 1.21812,-1.96309 0.77631,-0.97469 1.48678,-1.52807 2.2631,-1.76274 l 0.21574,-0.0651 5.08869,-0.007 c 5.60749,-0.008 5.20366,-0.0186 5.53001,0.14659 0.19018,0.0963 0.30418,0.1999 0.4221,0.3836 0.25606,0.39887 0.33267,1.07445 0.17948,1.58271 -0.10946,0.36316 -0.29334,0.60271 -0.60158,0.78371 -0.31629,0.18572 -0.22559,0.1763 -1.83362,0.19045 l -1.45009,0.0128 -0.0391,0.20286 c -0.26306,1.36517 -0.44023,3.00871 -0.46741,4.33605 -0.0454,2.21676 0.28528,3.66142 1.00505,4.39092 0.26162,0.26514 0.59439,0.41249 0.93449,0.4138 0.284,9.5e-4 0.67503,-0.13737 0.96379,-0.34127 0.23146,-0.16344 0.46583,-0.4456 0.5618,-0.67641 0.0591,-0.14208 0.0973,-0.51025 0.0803,-0.7732 -0.0131,-0.20247 -0.0122,-0.20703 0.0509,-0.25076 0.0548,-0.0379 0.0779,-0.0402 0.1573,-0.015 0.25316,0.0803 0.50565,0.4615 0.62702,0.94682 0.1018,0.40708 0.0564,1.06983 -0.10293,1.50269 -0.32224,0.87543 -1.07755,1.60233 -2.02893,1.95266 -0.38,0.13992 -0.66267,0.19248 -1.09525,0.20365 -0.21093,0.005 -0.40509,0.004 -0.43146,-0.002 z"
         style="fill:#000000;stroke-width:0.02465376" />
      <path
         sodipodi:nodetypes="csc"
         inkscape:connector-curvature="0"
         id="path939"
         d="m 5,288.5 c 4.6944204,0 8.5,3.80558 8.5,8.5 0,4.69442 -3.8055796,8.5 -8.5,8.5"
         style="opacity:1;fill:none;fill-opacity:1;stroke:#ffffff;stroke-width:3;stroke-linecap:round;stroke-miterlimit:4;stroke-dasharray:none;stroke-opacity:0.9917864" />
      <path
         sodipodi:nodetypes="csc"
         inkscape:connector-curvature="0"
         id="path942"
         d="m 5,278.5 c 10.217268,0 18.499999,8.28273 18.499998,18.5 10e-7,10.21727 -8.28273,18.5 -18.499998,18.5"
         style="opacity:1;fill:none;fill-opacity:1;stroke:#ffffff;stroke-width:3;stroke-linecap:round;stroke-miterlimit:4;stroke-dasharray:none;stroke-opacity:0.9917864" />
    </g>
  </g>
</svg>
